<svg id="visual" viewBox="0 0 960 540" width="960" height="540" xmlns="http://www.w3.org/2000/svg" xmlns:xlink="http://www.w3.org/1999/xlink" version="1.1"><rect x="0" y="0" width="960" height="540" fill="#FFFFFF"></rect><defs><linearGradient id="grad1_0" x1="43.8%" y1="0%" x2="100%" y2="100%"><stop offset="14.444444444444446%" stop-color="#ffb17d" stop-opacity="1"></stop><stop offset="85.55555555555554%" stop-color="#ffb17d" stop-opacity="1"></stop></linearGradient></defs><defs><linearGradient id="grad1_1" x1="43.8%" y1="0%" x2="100%" y2="100%"><stop offset="14.444444444444446%" stop-color="#ffb17d" stop-opacity="1"></stop><stop offset="85.55555555555554%" stop-color="#ffc49d" stop-opacity="1"></stop></linearGradient></defs><defs><linearGradient id="grad1_2" x1="43.8%" y1="0%" x2="100%" y2="100%"><stop offset="14.444444444444446%" stop-color="#ffd8bd" stop-opacity="1"></stop><stop offset="85.55555555555554%" stop-color="#ffc49d" stop-opacity="1"></stop></linearGradient></defs><defs><linearGradient id="grad1_3" x1="43.8%" y1="0%" x2="100%" y2="100%"><stop offset="14.444444444444446%" stop-color="#ffd8bd" stop-opacity="1"></stop><stop offset="85.55555555555554%" stop-color="#ffebde" stop-opacity="1"></stop></linearGradient></defs><defs><linearGradient id="grad1_4" x1="43.8%" y1="0%" x2="100%" y2="100%"><stop offset="14.444444444444446%" stop-color="#ffffff" stop-opacity="1"></stop><stop offset="85.55555555555554%" stop-color="#ffebde" stop-opacity="1"></stop></linearGradient></defs><defs><linearGradient id="grad2_0" x1="0%" y1="0%" x2="56.3%" y2="100%"><stop offset="14.444444444444446%" stop-color="#ffb17d" stop-opacity="1"></stop><stop offset="85.55555555555554%" stop-color="#ffb17d" stop-opacity="1"></stop></linearGradient></defs><defs><linearGradient id="grad2_1" x1="0%" y1="0%" x2="56.3%" y2="100%"><stop offset="14.444444444444446%" stop-color="#ffc49d" stop-opacity="1"></stop><stop offset="85.55555555555554%" stop-color="#ffb17d" stop-opacity="1"></stop></linearGradient></defs><defs><linearGradient id="grad2_2" x1="0%" y1="0%" x2="56.3%" y2="100%"><stop offset="14.444444444444446%" stop-color="#ffc49d" stop-opacity="1"></stop><stop offset="85.55555555555554%" stop-color="#ffd8bd" stop-opacity="1"></stop></linearGradient></defs><defs><linearGradient id="grad2_3" x1="0%" y1="0%" x2="56.3%" y2="100%"><stop offset="14.444444444444446%" stop-color="#ffebde" stop-opacity="1"></stop><stop offset="85.55555555555554%" stop-color="#ffd8bd" stop-opacity="1"></stop></linearGradient></defs><defs><linearGradient id="grad2_4" x1="0%" y1="0%" x2="56.3%" y2="100%"><stop offset="14.444444444444446%" stop-color="#ffebde" stop-opacity="1"></stop><stop offset="85.55555555555554%" stop-color="#ffffff" stop-opacity="1"></stop></linearGradient></defs><g transform="translate(960, 0)"><path d="M0 351C-52.8 353.9 -105.6 356.7 -134.3 324.3C-163 291.8 -167.6 224 -184.6 184.6C-201.5 145.1 -230.7 134 -260.5 107.9C-290.3 81.9 -320.7 40.9 -351 0L0 0Z" fill="#fff5ee"></path><path d="M0 280.8C-42.2 283.1 -84.5 285.4 -107.5 259.4C-130.4 233.5 -134.1 179.2 -147.6 147.6C-161.2 116.1 -184.6 107.2 -208.4 86.3C-232.3 65.5 -256.5 32.8 -280.8 0L0 0Z" fill="#ffe1cd"></path><path d="M0 210.6C-31.7 212.3 -63.4 214 -80.6 194.6C-97.8 175.1 -100.6 134.4 -110.7 110.7C-120.9 87.1 -138.4 80.4 -156.3 64.8C-174.2 49.1 -192.4 24.6 -210.6 0L0 0Z" fill="#ffcead"></path><path d="M0 140.4C-21.1 141.5 -42.2 142.7 -53.7 129.7C-65.2 116.7 -67.1 89.6 -73.8 73.8C-80.6 58 -92.3 53.6 -104.2 43.2C-116.1 32.8 -128.3 16.4 -140.4 0L0 0Z" fill="#ffbb8d"></path><path d="M0 70.2C-10.6 70.8 -21.1 71.3 -26.9 64.9C-32.6 58.4 -33.5 44.8 -36.9 36.9C-40.3 29 -46.1 26.8 -52.1 21.6C-58.1 16.4 -64.1 8.2 -70.2 0L0 0Z" fill="#ffb17d"></path></g><g transform="translate(0, 540)"><path d="M0 -351C36.2 -315 72.4 -279.1 106.8 -257.8C141.2 -236.4 173.8 -229.8 213.5 -213.5C253.3 -197.3 300.2 -171.5 324.3 -134.3C348.4 -97.1 349.7 -48.6 351 0L0 0Z" fill="#fff5ee"></path><path d="M0 -280.8C28.9 -252 57.9 -223.3 85.4 -206.2C112.9 -189.2 139 -183.8 170.8 -170.8C202.6 -157.8 240.1 -137.2 259.4 -107.5C278.7 -77.7 279.8 -38.9 280.8 0L0 0Z" fill="#ffe1cd"></path><path d="M0 -210.6C21.7 -189 43.4 -167.4 64.1 -154.7C84.7 -141.9 104.3 -137.9 128.1 -128.1C152 -118.4 180.1 -102.9 194.6 -80.6C209 -58.3 209.8 -29.1 210.6 0L0 0Z" fill="#ffcead"></path><path d="M0 -140.4C14.5 -126 28.9 -111.6 42.7 -103.1C56.5 -94.6 69.5 -91.9 85.4 -85.4C101.3 -78.9 120.1 -68.6 129.7 -53.7C139.4 -38.9 139.9 -19.4 140.4 0L0 0Z" fill="#ffbb8d"></path><path d="M0 -70.2C7.2 -63 14.5 -55.8 21.4 -51.6C28.2 -47.3 34.8 -46 42.7 -42.7C50.7 -39.5 60 -34.3 64.9 -26.9C69.7 -19.4 69.9 -9.7 70.2 0L0 0Z" fill="#ffb17d"></path></g></svg>